<mxfile host="65bd71144e">
    <diagram id="C5RBs43oDa-KdzZeNtuy" name="Page-1">
        <mxGraphModel dx="2503" dy="1177" grid="1" gridSize="10" guides="1" tooltips="1" connect="1" arrows="1" fold="1" page="1" pageScale="1" pageWidth="827" pageHeight="1169" math="0" shadow="0">
            <root>
                <mxCell id="WIyWlLk6GJQsqaUBKTNV-0"/>
                <mxCell id="WIyWlLk6GJQsqaUBKTNV-1" parent="WIyWlLk6GJQsqaUBKTNV-0"/>
                <mxCell id="zkfFHV4jXpPFQw0GAbJ--0" value="Guild" style="swimlane;fontStyle=2;align=center;verticalAlign=top;childLayout=stackLayout;horizontal=1;startSize=26;horizontalStack=0;resizeParent=1;resizeLast=0;collapsible=1;marginBottom=0;rounded=0;shadow=0;strokeWidth=1;" parent="WIyWlLk6GJQsqaUBKTNV-1" vertex="1">
                    <mxGeometry x="20" y="380" width="660" height="350" as="geometry">
                        <mxRectangle x="220" y="110" width="160" height="26" as="alternateBounds"/>
                    </mxGeometry>
                </mxCell>
                <mxCell id="zkfFHV4jXpPFQw0GAbJ--1" value="- id : int" style="text;align=left;verticalAlign=top;spacingLeft=4;spacingRight=4;overflow=hidden;rotatable=0;points=[[0,0.5],[1,0.5]];portConstraint=eastwest;" parent="zkfFHV4jXpPFQw0GAbJ--0" vertex="1">
                    <mxGeometry y="26" width="660" height="26" as="geometry"/>
                </mxCell>
                <mxCell id="zkfFHV4jXpPFQw0GAbJ--2" value="- name : string" style="text;align=left;verticalAlign=top;spacingLeft=4;spacingRight=4;overflow=hidden;rotatable=0;points=[[0,0.5],[1,0.5]];portConstraint=eastwest;rounded=0;shadow=0;html=0;" parent="zkfFHV4jXpPFQw0GAbJ--0" vertex="1">
                    <mxGeometry y="52" width="660" height="26" as="geometry"/>
                </mxCell>
                <mxCell id="zkfFHV4jXpPFQw0GAbJ--3" value="- user : List&lt;User&gt;" style="text;align=left;verticalAlign=top;spacingLeft=4;spacingRight=4;overflow=hidden;rotatable=0;points=[[0,0.5],[1,0.5]];portConstraint=eastwest;rounded=0;shadow=0;html=0;" parent="zkfFHV4jXpPFQw0GAbJ--0" vertex="1">
                    <mxGeometry y="78" width="660" height="26" as="geometry"/>
                </mxCell>
                <mxCell id="fH7bzVCsuVoAFf-0sckF-0" value="&amp;nbsp;- owner : User" style="text;html=1;strokeColor=none;fillColor=none;align=left;verticalAlign=middle;whiteSpace=wrap;rounded=0;" parent="zkfFHV4jXpPFQw0GAbJ--0" vertex="1">
                    <mxGeometry y="104" width="660" height="20" as="geometry"/>
                </mxCell>
                <mxCell id="fH7bzVCsuVoAFf-0sckF-1" value="&amp;nbsp;- roles : List&amp;lt;Role&amp;gt;" style="text;html=1;strokeColor=none;fillColor=none;align=left;verticalAlign=middle;whiteSpace=wrap;rounded=0;" parent="zkfFHV4jXpPFQw0GAbJ--0" vertex="1">
                    <mxGeometry y="124" width="660" height="20" as="geometry"/>
                </mxCell>
                <mxCell id="fH7bzVCsuVoAFf-0sckF-2" value="&amp;nbsp;- permissions : List&amp;lt;Permission&amp;gt;" style="text;html=1;align=left;verticalAlign=middle;resizable=0;points=[];autosize=1;strokeColor=none;" parent="zkfFHV4jXpPFQw0GAbJ--0" vertex="1">
                    <mxGeometry y="144" width="660" height="20" as="geometry"/>
                </mxCell>
                <mxCell id="fH7bzVCsuVoAFf-0sckF-4" value="&amp;nbsp;- channels : List&amp;lt;Channel&amp;gt;" style="text;html=1;align=left;verticalAlign=middle;resizable=0;points=[];autosize=1;strokeColor=none;" parent="zkfFHV4jXpPFQw0GAbJ--0" vertex="1">
                    <mxGeometry y="164" width="660" height="20" as="geometry"/>
                </mxCell>
                <mxCell id="zkfFHV4jXpPFQw0GAbJ--4" value="" style="line;html=1;strokeWidth=1;align=left;verticalAlign=middle;spacingTop=-1;spacingLeft=3;spacingRight=3;rotatable=0;labelPosition=right;points=[];portConstraint=eastwest;" parent="zkfFHV4jXpPFQw0GAbJ--0" vertex="1">
                    <mxGeometry y="184" width="660" height="8" as="geometry"/>
                </mxCell>
                <mxCell id="18" value="+ Guild(id : int, name : string, owner : User, roles : List&lt;Role&gt;, permissions : List&lt;Permission&gt;, channels : List&lt;Channel&gt;)" style="text;align=left;verticalAlign=top;spacingLeft=4;spacingRight=4;overflow=hidden;rotatable=0;points=[[0,0.5],[1,0.5]];portConstraint=eastwest;" vertex="1" parent="zkfFHV4jXpPFQw0GAbJ--0">
                    <mxGeometry y="192" width="660" height="26" as="geometry"/>
                </mxCell>
                <mxCell id="fH7bzVCsuVoAFf-0sckF-55" value="&amp;nbsp;+ &amp;lt;&amp;lt;get&amp;gt;&amp;gt; Roles() : List&amp;lt;Roles&amp;gt;" style="text;html=1;align=left;verticalAlign=middle;resizable=0;points=[];autosize=1;strokeColor=none;" parent="zkfFHV4jXpPFQw0GAbJ--0" vertex="1">
                    <mxGeometry y="218" width="660" height="20" as="geometry"/>
                </mxCell>
                <mxCell id="fH7bzVCsuVoAFf-0sckF-53" value="&amp;nbsp;+ &amp;lt;&amp;lt;get&amp;gt;&amp;gt; User() : List&amp;lt;User&amp;gt;" style="text;html=1;align=left;verticalAlign=middle;resizable=0;points=[];autosize=1;strokeColor=none;" parent="zkfFHV4jXpPFQw0GAbJ--0" vertex="1">
                    <mxGeometry y="238" width="660" height="20" as="geometry"/>
                </mxCell>
                <mxCell id="fH7bzVCsuVoAFf-0sckF-54" value="&amp;nbsp;+ &amp;lt;&amp;lt;get&amp;gt;&amp;gt; Owner() : User" style="text;html=1;align=left;verticalAlign=middle;resizable=0;points=[];autosize=1;strokeColor=none;" parent="zkfFHV4jXpPFQw0GAbJ--0" vertex="1">
                    <mxGeometry y="258" width="660" height="20" as="geometry"/>
                </mxCell>
                <mxCell id="fH7bzVCsuVoAFf-0sckF-28" value="&amp;nbsp;+ &amp;lt;&amp;lt;get&amp;gt;&amp;gt; Name() : string" style="text;html=1;align=left;verticalAlign=middle;resizable=0;points=[];autosize=1;strokeColor=none;" parent="zkfFHV4jXpPFQw0GAbJ--0" vertex="1">
                    <mxGeometry y="278" width="660" height="20" as="geometry"/>
                </mxCell>
                <mxCell id="fH7bzVCsuVoAFf-0sckF-5" value="+ &lt;&lt;get&gt;&gt; Id() : int" style="text;align=left;verticalAlign=top;spacingLeft=4;spacingRight=4;overflow=hidden;rotatable=0;points=[[0,0.5],[1,0.5]];portConstraint=eastwest;" parent="zkfFHV4jXpPFQw0GAbJ--0" vertex="1">
                    <mxGeometry y="298" width="660" height="26" as="geometry"/>
                </mxCell>
                <mxCell id="fH7bzVCsuVoAFf-0sckF-12" value="User" style="swimlane;fontStyle=2;align=center;verticalAlign=top;childLayout=stackLayout;horizontal=1;startSize=26;horizontalStack=0;resizeParent=1;resizeLast=0;collapsible=1;marginBottom=0;rounded=0;shadow=0;strokeWidth=1;" parent="WIyWlLk6GJQsqaUBKTNV-1" vertex="1">
                    <mxGeometry x="1060" width="300" height="220" as="geometry">
                        <mxRectangle x="230" y="140" width="160" height="26" as="alternateBounds"/>
                    </mxGeometry>
                </mxCell>
                <mxCell id="fH7bzVCsuVoAFf-0sckF-13" value="- id : int" style="text;align=left;verticalAlign=top;spacingLeft=4;spacingRight=4;overflow=hidden;rotatable=0;points=[[0,0.5],[1,0.5]];portConstraint=eastwest;" parent="fH7bzVCsuVoAFf-0sckF-12" vertex="1">
                    <mxGeometry y="26" width="300" height="26" as="geometry"/>
                </mxCell>
                <mxCell id="fH7bzVCsuVoAFf-0sckF-14" value="- username : string" style="text;align=left;verticalAlign=top;spacingLeft=4;spacingRight=4;overflow=hidden;rotatable=0;points=[[0,0.5],[1,0.5]];portConstraint=eastwest;rounded=0;shadow=0;html=0;" parent="fH7bzVCsuVoAFf-0sckF-12" vertex="1">
                    <mxGeometry y="52" width="300" height="26" as="geometry"/>
                </mxCell>
                <mxCell id="fH7bzVCsuVoAFf-0sckF-15" value="- guilds : List&lt;Guild&gt;" style="text;align=left;verticalAlign=top;spacingLeft=4;spacingRight=4;overflow=hidden;rotatable=0;points=[[0,0.5],[1,0.5]];portConstraint=eastwest;rounded=0;shadow=0;html=0;" parent="fH7bzVCsuVoAFf-0sckF-12" vertex="1">
                    <mxGeometry y="78" width="300" height="26" as="geometry"/>
                </mxCell>
                <mxCell id="fH7bzVCsuVoAFf-0sckF-20" value="" style="line;html=1;strokeWidth=1;align=left;verticalAlign=middle;spacingTop=-1;spacingLeft=3;spacingRight=3;rotatable=0;labelPosition=right;points=[];portConstraint=eastwest;" parent="fH7bzVCsuVoAFf-0sckF-12" vertex="1">
                    <mxGeometry y="104" width="300" height="8" as="geometry"/>
                </mxCell>
                <mxCell id="13" value="+ User(id : int, username : string, guilds List&lt;Guild&gt;)" style="text;align=left;verticalAlign=top;spacingLeft=4;spacingRight=4;overflow=hidden;rotatable=0;points=[[0,0.5],[1,0.5]];portConstraint=eastwest;" vertex="1" parent="fH7bzVCsuVoAFf-0sckF-12">
                    <mxGeometry y="112" width="300" height="26" as="geometry"/>
                </mxCell>
                <mxCell id="14" value="+ &lt;&lt;get&gt;&gt; Id() : int" style="text;align=left;verticalAlign=top;spacingLeft=4;spacingRight=4;overflow=hidden;rotatable=0;points=[[0,0.5],[1,0.5]];portConstraint=eastwest;" vertex="1" parent="fH7bzVCsuVoAFf-0sckF-12">
                    <mxGeometry y="138" width="300" height="26" as="geometry"/>
                </mxCell>
                <mxCell id="15" value="+ &lt;&lt;get&gt;&gt; Username() : string" style="text;align=left;verticalAlign=top;spacingLeft=4;spacingRight=4;overflow=hidden;rotatable=0;points=[[0,0.5],[1,0.5]];portConstraint=eastwest;" vertex="1" parent="fH7bzVCsuVoAFf-0sckF-12">
                    <mxGeometry y="164" width="300" height="26" as="geometry"/>
                </mxCell>
                <mxCell id="16" value="+ &lt;&lt;get&gt;&gt; Guilds() : List&lt;Guild&gt;" style="text;align=left;verticalAlign=top;spacingLeft=4;spacingRight=4;overflow=hidden;rotatable=0;points=[[0,0.5],[1,0.5]];portConstraint=eastwest;" vertex="1" parent="fH7bzVCsuVoAFf-0sckF-12">
                    <mxGeometry y="190" width="300" height="26" as="geometry"/>
                </mxCell>
                <mxCell id="43" value="" style="edgeStyle=none;html=1;endArrow=diamond;endFill=1;" edge="1" parent="WIyWlLk6GJQsqaUBKTNV-1" source="fH7bzVCsuVoAFf-0sckF-29" target="zkfFHV4jXpPFQw0GAbJ--0">
                    <mxGeometry relative="1" as="geometry"/>
                </mxCell>
                <mxCell id="fH7bzVCsuVoAFf-0sckF-29" value="Role" style="swimlane;fontStyle=2;align=center;verticalAlign=top;childLayout=stackLayout;horizontal=1;startSize=26;horizontalStack=0;resizeParent=1;resizeLast=0;collapsible=1;marginBottom=0;rounded=0;shadow=0;strokeWidth=1;" parent="WIyWlLk6GJQsqaUBKTNV-1" vertex="1">
                    <mxGeometry x="910" y="280" width="240" height="160" as="geometry">
                        <mxRectangle x="420" y="555" width="160" height="26" as="alternateBounds"/>
                    </mxGeometry>
                </mxCell>
                <mxCell id="fH7bzVCsuVoAFf-0sckF-30" value="- name : string" style="text;align=left;verticalAlign=top;spacingLeft=4;spacingRight=4;overflow=hidden;rotatable=0;points=[[0,0.5],[1,0.5]];portConstraint=eastwest;" parent="fH7bzVCsuVoAFf-0sckF-29" vertex="1">
                    <mxGeometry y="26" width="240" height="26" as="geometry"/>
                </mxCell>
                <mxCell id="fH7bzVCsuVoAFf-0sckF-31" value="- users : List&lt;User&gt;" style="text;align=left;verticalAlign=top;spacingLeft=4;spacingRight=4;overflow=hidden;rotatable=0;points=[[0,0.5],[1,0.5]];portConstraint=eastwest;rounded=0;shadow=0;html=0;" parent="fH7bzVCsuVoAFf-0sckF-29" vertex="1">
                    <mxGeometry y="52" width="240" height="26" as="geometry"/>
                </mxCell>
                <mxCell id="fH7bzVCsuVoAFf-0sckF-33" value="" style="line;html=1;strokeWidth=1;align=left;verticalAlign=middle;spacingTop=-1;spacingLeft=3;spacingRight=3;rotatable=0;labelPosition=right;points=[];portConstraint=eastwest;" parent="fH7bzVCsuVoAFf-0sckF-29" vertex="1">
                    <mxGeometry y="78" width="240" height="8" as="geometry"/>
                </mxCell>
                <mxCell id="19" value="&amp;nbsp;+ Role(name : string, users : List&amp;lt;User&amp;gt;)" style="text;html=1;align=left;verticalAlign=middle;resizable=0;points=[];autosize=1;strokeColor=none;" vertex="1" parent="fH7bzVCsuVoAFf-0sckF-29">
                    <mxGeometry y="86" width="240" height="20" as="geometry"/>
                </mxCell>
                <mxCell id="20" value="&amp;nbsp;+ &amp;lt;&amp;lt;get&amp;gt;&amp;gt; Name() : string" style="text;html=1;align=left;verticalAlign=middle;resizable=0;points=[];autosize=1;strokeColor=none;" vertex="1" parent="fH7bzVCsuVoAFf-0sckF-29">
                    <mxGeometry y="106" width="240" height="20" as="geometry"/>
                </mxCell>
                <mxCell id="21" value="&amp;nbsp;+ &amp;lt;&amp;lt;get&amp;gt;&amp;gt; Users(): List&amp;lt;User&amp;gt;" style="text;html=1;align=left;verticalAlign=middle;resizable=0;points=[];autosize=1;strokeColor=none;" vertex="1" parent="fH7bzVCsuVoAFf-0sckF-29">
                    <mxGeometry y="126" width="240" height="20" as="geometry"/>
                </mxCell>
                <mxCell id="fH7bzVCsuVoAFf-0sckF-34" value="Permission" style="swimlane;fontStyle=2;align=center;verticalAlign=top;childLayout=stackLayout;horizontal=1;startSize=26;horizontalStack=0;resizeParent=1;resizeLast=0;collapsible=1;marginBottom=0;rounded=0;shadow=0;strokeWidth=1;" parent="WIyWlLk6GJQsqaUBKTNV-1" vertex="1">
                    <mxGeometry x="1250" y="380" width="350" height="210" as="geometry">
                        <mxRectangle x="230" y="140" width="160" height="26" as="alternateBounds"/>
                    </mxGeometry>
                </mxCell>
                <mxCell id="fH7bzVCsuVoAFf-0sckF-35" value="- name : string" style="text;align=left;verticalAlign=top;spacingLeft=4;spacingRight=4;overflow=hidden;rotatable=0;points=[[0,0.5],[1,0.5]];portConstraint=eastwest;" parent="fH7bzVCsuVoAFf-0sckF-34" vertex="1">
                    <mxGeometry y="26" width="350" height="26" as="geometry"/>
                </mxCell>
                <mxCell id="fH7bzVCsuVoAFf-0sckF-36" value="- description : string" style="text;align=left;verticalAlign=top;spacingLeft=4;spacingRight=4;overflow=hidden;rotatable=0;points=[[0,0.5],[1,0.5]];portConstraint=eastwest;rounded=0;shadow=0;html=0;" parent="fH7bzVCsuVoAFf-0sckF-34" vertex="1">
                    <mxGeometry y="52" width="350" height="26" as="geometry"/>
                </mxCell>
                <mxCell id="fH7bzVCsuVoAFf-0sckF-37" value="- roles : List&lt;Role&gt;" style="text;align=left;verticalAlign=top;spacingLeft=4;spacingRight=4;overflow=hidden;rotatable=0;points=[[0,0.5],[1,0.5]];portConstraint=eastwest;rounded=0;shadow=0;html=0;" parent="fH7bzVCsuVoAFf-0sckF-34" vertex="1">
                    <mxGeometry y="78" width="350" height="26" as="geometry"/>
                </mxCell>
                <mxCell id="fH7bzVCsuVoAFf-0sckF-38" value="" style="line;html=1;strokeWidth=1;align=left;verticalAlign=middle;spacingTop=-1;spacingLeft=3;spacingRight=3;rotatable=0;labelPosition=right;points=[];portConstraint=eastwest;" parent="fH7bzVCsuVoAFf-0sckF-34" vertex="1">
                    <mxGeometry y="104" width="350" height="8" as="geometry"/>
                </mxCell>
                <mxCell id="32" value="&amp;nbsp;+ Channel(name : string, description : string, role : List&amp;lt;Role&amp;gt;)" style="text;html=1;align=left;verticalAlign=middle;resizable=0;points=[];autosize=1;strokeColor=none;" vertex="1" parent="fH7bzVCsuVoAFf-0sckF-34">
                    <mxGeometry y="112" width="350" height="20" as="geometry"/>
                </mxCell>
                <mxCell id="33" value="&amp;nbsp;+ &amp;lt;&amp;lt;get&amp;gt;&amp;gt; Name() : string" style="text;html=1;align=left;verticalAlign=middle;resizable=0;points=[];autosize=1;strokeColor=none;" vertex="1" parent="fH7bzVCsuVoAFf-0sckF-34">
                    <mxGeometry y="132" width="350" height="20" as="geometry"/>
                </mxCell>
                <mxCell id="41" value="&amp;nbsp;+ &amp;lt;&amp;lt;get&amp;gt;&amp;gt; Description() : string" style="text;html=1;align=left;verticalAlign=middle;resizable=0;points=[];autosize=1;strokeColor=none;" vertex="1" parent="fH7bzVCsuVoAFf-0sckF-34">
                    <mxGeometry y="152" width="350" height="20" as="geometry"/>
                </mxCell>
                <mxCell id="42" value="&amp;nbsp;+ &amp;lt;&amp;lt;get&amp;gt;&amp;gt; Roles() : List&amp;lt;Role&amp;gt;" style="text;html=1;align=left;verticalAlign=middle;resizable=0;points=[];autosize=1;strokeColor=none;" vertex="1" parent="fH7bzVCsuVoAFf-0sckF-34">
                    <mxGeometry y="172" width="350" height="20" as="geometry"/>
                </mxCell>
                <mxCell id="fH7bzVCsuVoAFf-0sckF-39" value="Channel" style="swimlane;fontStyle=2;align=center;verticalAlign=top;childLayout=stackLayout;horizontal=1;startSize=26;horizontalStack=0;resizeParent=1;resizeLast=0;collapsible=1;marginBottom=0;rounded=0;shadow=0;strokeWidth=1;" parent="WIyWlLk6GJQsqaUBKTNV-1" vertex="1">
                    <mxGeometry x="750" y="600" width="520" height="250" as="geometry">
                        <mxRectangle x="980" y="510" width="160" height="26" as="alternateBounds"/>
                    </mxGeometry>
                </mxCell>
                <mxCell id="fH7bzVCsuVoAFf-0sckF-40" value="- id : int" style="text;align=left;verticalAlign=top;spacingLeft=4;spacingRight=4;overflow=hidden;rotatable=0;points=[[0,0.5],[1,0.5]];portConstraint=eastwest;" parent="fH7bzVCsuVoAFf-0sckF-39" vertex="1">
                    <mxGeometry y="26" width="520" height="26" as="geometry"/>
                </mxCell>
                <mxCell id="fH7bzVCsuVoAFf-0sckF-41" value="- name : string" style="text;align=left;verticalAlign=top;spacingLeft=4;spacingRight=4;overflow=hidden;rotatable=0;points=[[0,0.5],[1,0.5]];portConstraint=eastwest;rounded=0;shadow=0;html=0;" parent="fH7bzVCsuVoAFf-0sckF-39" vertex="1">
                    <mxGeometry y="52" width="520" height="26" as="geometry"/>
                </mxCell>
                <mxCell id="fH7bzVCsuVoAFf-0sckF-42" value="- permissions : List&lt;Permission&gt;" style="text;align=left;verticalAlign=top;spacingLeft=4;spacingRight=4;overflow=hidden;rotatable=0;points=[[0,0.5],[1,0.5]];portConstraint=eastwest;rounded=0;shadow=0;html=0;" parent="fH7bzVCsuVoAFf-0sckF-39" vertex="1">
                    <mxGeometry y="78" width="520" height="26" as="geometry"/>
                </mxCell>
                <mxCell id="fH7bzVCsuVoAFf-0sckF-49" value="&amp;nbsp;- messages : List&amp;lt;Message&amp;gt;" style="text;html=1;align=left;verticalAlign=middle;resizable=0;points=[];autosize=1;strokeColor=none;" parent="fH7bzVCsuVoAFf-0sckF-39" vertex="1">
                    <mxGeometry y="104" width="520" height="20" as="geometry"/>
                </mxCell>
                <mxCell id="fH7bzVCsuVoAFf-0sckF-43" value="" style="line;html=1;strokeWidth=1;align=left;verticalAlign=middle;spacingTop=-1;spacingLeft=3;spacingRight=3;rotatable=0;labelPosition=right;points=[];portConstraint=eastwest;" parent="fH7bzVCsuVoAFf-0sckF-39" vertex="1">
                    <mxGeometry y="124" width="520" height="8" as="geometry"/>
                </mxCell>
                <mxCell id="27" value="&amp;nbsp;+ Channel(id : int, name : string, permissions : List&amp;lt;Permission&amp;gt;, messages : List&amp;lt;Message&amp;gt;)" style="text;html=1;align=left;verticalAlign=middle;resizable=0;points=[];autosize=1;strokeColor=none;" vertex="1" parent="fH7bzVCsuVoAFf-0sckF-39">
                    <mxGeometry y="132" width="520" height="20" as="geometry"/>
                </mxCell>
                <mxCell id="28" value="&amp;nbsp;+ &amp;lt;&amp;lt;get&amp;gt;&amp;gt; Id() : int" style="text;html=1;align=left;verticalAlign=middle;resizable=0;points=[];autosize=1;strokeColor=none;" vertex="1" parent="fH7bzVCsuVoAFf-0sckF-39">
                    <mxGeometry y="152" width="520" height="20" as="geometry"/>
                </mxCell>
                <mxCell id="29" value="&amp;nbsp;+ &amp;lt;&amp;lt;get&amp;gt;&amp;gt; Name() : string" style="text;html=1;align=left;verticalAlign=middle;resizable=0;points=[];autosize=1;strokeColor=none;" vertex="1" parent="fH7bzVCsuVoAFf-0sckF-39">
                    <mxGeometry y="172" width="520" height="20" as="geometry"/>
                </mxCell>
                <mxCell id="30" value="&amp;nbsp;+ &amp;lt;&amp;lt;get&amp;gt;&amp;gt; Permissions() : List&amp;lt;Permission&amp;gt;" style="text;html=1;align=left;verticalAlign=middle;resizable=0;points=[];autosize=1;strokeColor=none;" vertex="1" parent="fH7bzVCsuVoAFf-0sckF-39">
                    <mxGeometry y="192" width="520" height="20" as="geometry"/>
                </mxCell>
                <mxCell id="31" value="&amp;nbsp;+ &amp;lt;&amp;lt;get&amp;gt;&amp;gt; Messages() : List&amp;lt;Message&amp;gt;" style="text;html=1;align=left;verticalAlign=middle;resizable=0;points=[];autosize=1;strokeColor=none;" vertex="1" parent="fH7bzVCsuVoAFf-0sckF-39">
                    <mxGeometry y="212" width="520" height="20" as="geometry"/>
                </mxCell>
                <mxCell id="fH7bzVCsuVoAFf-0sckF-44" value="Message" style="swimlane;fontStyle=2;align=center;verticalAlign=top;childLayout=stackLayout;horizontal=1;startSize=26;horizontalStack=0;resizeParent=1;resizeLast=0;collapsible=1;marginBottom=0;rounded=0;shadow=0;strokeWidth=1;" parent="WIyWlLk6GJQsqaUBKTNV-1" vertex="1">
                    <mxGeometry x="1050" y="890" width="450" height="270" as="geometry">
                        <mxRectangle x="230" y="140" width="160" height="26" as="alternateBounds"/>
                    </mxGeometry>
                </mxCell>
                <mxCell id="fH7bzVCsuVoAFf-0sckF-45" value="- id : int" style="text;align=left;verticalAlign=top;spacingLeft=4;spacingRight=4;overflow=hidden;rotatable=0;points=[[0,0.5],[1,0.5]];portConstraint=eastwest;" parent="fH7bzVCsuVoAFf-0sckF-44" vertex="1">
                    <mxGeometry y="26" width="450" height="26" as="geometry"/>
                </mxCell>
                <mxCell id="fH7bzVCsuVoAFf-0sckF-46" value="- content : string" style="text;align=left;verticalAlign=top;spacingLeft=4;spacingRight=4;overflow=hidden;rotatable=0;points=[[0,0.5],[1,0.5]];portConstraint=eastwest;rounded=0;shadow=0;html=0;" parent="fH7bzVCsuVoAFf-0sckF-44" vertex="1">
                    <mxGeometry y="52" width="450" height="26" as="geometry"/>
                </mxCell>
                <mxCell id="fH7bzVCsuVoAFf-0sckF-47" value="- sender : User" style="text;align=left;verticalAlign=top;spacingLeft=4;spacingRight=4;overflow=hidden;rotatable=0;points=[[0,0.5],[1,0.5]];portConstraint=eastwest;rounded=0;shadow=0;html=0;" parent="fH7bzVCsuVoAFf-0sckF-44" vertex="1">
                    <mxGeometry y="78" width="450" height="26" as="geometry"/>
                </mxCell>
                <mxCell id="fH7bzVCsuVoAFf-0sckF-51" value="&amp;nbsp;- guild : Guild" style="text;html=1;align=left;verticalAlign=middle;resizable=0;points=[];autosize=1;strokeColor=none;" parent="fH7bzVCsuVoAFf-0sckF-44" vertex="1">
                    <mxGeometry y="104" width="450" height="20" as="geometry"/>
                </mxCell>
                <mxCell id="fH7bzVCsuVoAFf-0sckF-52" value="&amp;nbsp;- channel : Channel" style="text;html=1;align=left;verticalAlign=middle;resizable=0;points=[];autosize=1;strokeColor=none;" parent="fH7bzVCsuVoAFf-0sckF-44" vertex="1">
                    <mxGeometry y="124" width="450" height="20" as="geometry"/>
                </mxCell>
                <mxCell id="fH7bzVCsuVoAFf-0sckF-48" value="" style="line;html=1;strokeWidth=1;align=left;verticalAlign=middle;spacingTop=-1;spacingLeft=3;spacingRight=3;rotatable=0;labelPosition=right;points=[];portConstraint=eastwest;" parent="fH7bzVCsuVoAFf-0sckF-44" vertex="1">
                    <mxGeometry y="144" width="450" height="8" as="geometry"/>
                </mxCell>
                <mxCell id="22" value="&amp;nbsp;+ Message(id : int, content : string, sender : User, guild : Guild, channel : Channel)" style="text;html=1;align=left;verticalAlign=middle;resizable=0;points=[];autosize=1;strokeColor=none;" vertex="1" parent="fH7bzVCsuVoAFf-0sckF-44">
                    <mxGeometry y="152" width="450" height="20" as="geometry"/>
                </mxCell>
                <mxCell id="23" value="&amp;nbsp;+ &amp;lt;&amp;lt;get&amp;gt;&amp;gt; Id() : int" style="text;html=1;align=left;verticalAlign=middle;resizable=0;points=[];autosize=1;strokeColor=none;" vertex="1" parent="fH7bzVCsuVoAFf-0sckF-44">
                    <mxGeometry y="172" width="450" height="20" as="geometry"/>
                </mxCell>
                <mxCell id="24" value="&amp;nbsp;+ &amp;lt;&amp;lt;get&amp;gt;&amp;gt; Sender() : User" style="text;html=1;align=left;verticalAlign=middle;resizable=0;points=[];autosize=1;strokeColor=none;" vertex="1" parent="fH7bzVCsuVoAFf-0sckF-44">
                    <mxGeometry y="192" width="450" height="20" as="geometry"/>
                </mxCell>
                <mxCell id="25" value="&amp;nbsp;+ &amp;lt;&amp;lt;get&amp;gt;&amp;gt; Guild() : Guild" style="text;html=1;align=left;verticalAlign=middle;resizable=0;points=[];autosize=1;strokeColor=none;" vertex="1" parent="fH7bzVCsuVoAFf-0sckF-44">
                    <mxGeometry y="212" width="450" height="20" as="geometry"/>
                </mxCell>
                <mxCell id="26" value="&amp;nbsp;+ &amp;lt;&amp;lt;get&amp;gt;&amp;gt; Channel() : Channel" style="text;html=1;align=left;verticalAlign=middle;resizable=0;points=[];autosize=1;strokeColor=none;" vertex="1" parent="fH7bzVCsuVoAFf-0sckF-44">
                    <mxGeometry y="232" width="450" height="20" as="geometry"/>
                </mxCell>
                <mxCell id="44" value="" style="edgeStyle=none;html=1;endArrow=diamond;endFill=1;" edge="1" parent="WIyWlLk6GJQsqaUBKTNV-1" source="fH7bzVCsuVoAFf-0sckF-39" target="zkfFHV4jXpPFQw0GAbJ--0">
                    <mxGeometry relative="1" as="geometry">
                        <mxPoint x="552.2857142857142" y="565" as="sourcePoint"/>
                        <mxPoint x="555" y="470" as="targetPoint"/>
                    </mxGeometry>
                </mxCell>
                <mxCell id="45" value="" style="edgeStyle=none;html=1;endArrow=diamond;endFill=1;" edge="1" parent="WIyWlLk6GJQsqaUBKTNV-1" source="fH7bzVCsuVoAFf-0sckF-12" target="zkfFHV4jXpPFQw0GAbJ--0">
                    <mxGeometry relative="1" as="geometry">
                        <mxPoint x="1000" y="520" as="sourcePoint"/>
                        <mxPoint x="800" y="420" as="targetPoint"/>
                    </mxGeometry>
                </mxCell>
                <mxCell id="46" value="" style="edgeStyle=none;html=1;endArrow=diamond;endFill=1;" edge="1" parent="WIyWlLk6GJQsqaUBKTNV-1" source="fH7bzVCsuVoAFf-0sckF-34" target="zkfFHV4jXpPFQw0GAbJ--0">
                    <mxGeometry relative="1" as="geometry">
                        <mxPoint x="951" y="235.9429477020601" as="sourcePoint"/>
                        <mxPoint x="800" y="241.92551505546749" as="targetPoint"/>
                    </mxGeometry>
                </mxCell>
                <mxCell id="47" value="" style="edgeStyle=none;html=1;endArrow=diamond;endFill=1;" edge="1" parent="WIyWlLk6GJQsqaUBKTNV-1" source="fH7bzVCsuVoAFf-0sckF-44" target="fH7bzVCsuVoAFf-0sckF-39">
                    <mxGeometry relative="1" as="geometry">
                        <mxPoint x="933.5714285714284" y="550" as="sourcePoint"/>
                        <mxPoint x="745" y="430" as="targetPoint"/>
                    </mxGeometry>
                </mxCell>
                <mxCell id="48" value="" style="edgeStyle=none;html=1;endArrow=diamond;endFill=1;" edge="1" parent="WIyWlLk6GJQsqaUBKTNV-1" source="fH7bzVCsuVoAFf-0sckF-12" target="fH7bzVCsuVoAFf-0sckF-29">
                    <mxGeometry relative="1" as="geometry">
                        <mxPoint x="1260" y="506.39534883720944" as="sourcePoint"/>
                        <mxPoint x="690" y="543.5116279069769" as="targetPoint"/>
                    </mxGeometry>
                </mxCell>
                <mxCell id="49" value="" style="edgeStyle=none;html=1;endArrow=diamond;endFill=1;" edge="1" parent="WIyWlLk6GJQsqaUBKTNV-1" source="fH7bzVCsuVoAFf-0sckF-34" target="fH7bzVCsuVoAFf-0sckF-39">
                    <mxGeometry relative="1" as="geometry">
                        <mxPoint x="1260" y="506.39534883720944" as="sourcePoint"/>
                        <mxPoint x="690" y="543.5116279069769" as="targetPoint"/>
                    </mxGeometry>
                </mxCell>
                <mxCell id="50" value="" style="edgeStyle=none;html=1;endArrow=diamond;endFill=1;" edge="1" parent="WIyWlLk6GJQsqaUBKTNV-1" source="fH7bzVCsuVoAFf-0sckF-29" target="fH7bzVCsuVoAFf-0sckF-34">
                    <mxGeometry relative="1" as="geometry">
                        <mxPoint x="1260" y="596.2048192771085" as="sourcePoint"/>
                        <mxPoint x="1236.1458333333335" y="610" as="targetPoint"/>
                    </mxGeometry>
                </mxCell>
            </root>
        </mxGraphModel>
    </diagram>
</mxfile>